<svg xmlns="http://www.w3.org/2000/svg" xmlns:xlink="http://www.w3.org/1999/xlink" width="48" height="48" version="1.1" viewBox="0 0 48 48"><title>pauseIconLarge</title><desc>Created with Sketch.</desc><defs><rect id="path-1" width="48" height="48" x="0" y="0" rx="24"/><mask id="mask-2" width="48" height="48" x="0" y="0" fill="#fff" maskContentUnits="userSpaceOnUse" maskUnits="objectBoundingBox"><use xlink:href="#path-1"/></mask></defs><g id="Assets" fill="none" fill-rule="evenodd" stroke="none" stroke-width="1"><g id="pauseIconLarge"><use id="Rectangle-10" stroke="#FFF" stroke-width="4" mask="url(#mask-2)" opacity=".2" xlink:href="#path-1"/><path id="Combined-Shape" fill="#FFF" d="M15,13.507562 C15,12.6749585 15.6657972,12 16.5,12 C17.3284271,12 18,12.6686896 18,13.507562 L18,35.492438 C18,36.3250415 17.3342028,37 16.5,37 C15.6715729,37 15,36.3313104 15,35.492438 L15,13.507562 Z M30,13.507562 C30,12.6749585 30.6657972,12 31.5,12 C32.3284271,12 33,12.6686896 33,13.507562 L33,35.492438 C33,36.3250415 32.3342028,37 31.5,37 C30.6715729,37 30,36.3313104 30,35.492438 L30,13.507562 Z"/></g></g></svg>