<svg xmlns="http://www.w3.org/2000/svg" viewBox="-21.183746337890625 14 542.3674926757812 122" style="background: rgba(0, 0, 0, 0);" preserveAspectRatio="xMidYMid" width="542.3674926757812" height="122"><defs><filter id="editing-extrusion" x="-100%" y="-100%" width="300%" height="300%"><feFlood result="color1" flood-color="#444"></feFlood><feConvolveMatrix order="6,6" divisor="1" kernelMatrix="1 0 0 0 0 0 0 1 0 0 0 0 0 0 1 0 0 0 0 0 0 1 0 0 0 0 0 0 1 0 0 0 0 0 0 1" in="SourceAlpha" result="extrude"></feConvolveMatrix><feComposite in="color1" in2="extrude" result="comp-extrude" operator="in"></feComposite><feOffset dx="3" dy="3" in="comp-extrude" result="offset-extrude"></feOffset><feMerge><feMergeNode in="offset-extrude"></feMergeNode><feMergeNode in="SourceGraphic"></feMergeNode></feMerge></filter></defs><g filter="url(#editing-extrusion)"><g transform="translate(59.211873173713684, 102.30000114440918)"><path d="M26.05-29.57L26.05-29.57L26.05-29.57Q27.01-31.49 27.01-33.28L27.01-33.28L27.01-33.28Q27.01-35.07 26.82-36.06L26.82-36.06L26.82-36.06Q26.62-37.06 26.18-37.82L26.18-37.82L26.18-37.82Q25.22-39.49 23.30-39.49L23.30-39.49L23.30-39.49Q20.93-39.49 19.01-37.76L19.01-37.76L19.01-37.76Q16.96-35.97 16.96-33.15L16.96-33.15L16.96-33.15Q16.96-31.36 18.21-29.98L18.21-29.98L18.21-29.98Q19.46-28.61 21.38-27.33L21.38-27.33L21.38-27.33Q23.30-26.05 25.47-24.77L25.47-24.77L25.47-24.77Q27.65-23.49 29.57-21.95L29.57-21.95L29.57-21.95Q33.98-18.43 33.98-13.70L33.98-13.70L33.98-13.70Q33.98-10.50 32.29-7.78L32.29-7.78L32.29-7.78Q30.59-5.06 27.78-3.07L27.78-3.07L27.78-3.07Q21.63 1.28 13.50 1.28L13.50 1.28L13.50 1.28Q6.91 1.28 3.52-0.86L3.52-0.86L3.52-0.86Q0.13-3.01 0.13-6.27L0.13-6.27L0.13-6.27Q0.13-12.10 4.67-13.57L4.67-13.57L4.67-13.57Q5.95-14.02 7.90-14.02L7.90-14.02L7.90-14.02Q9.86-14.02 12.10-13.18L12.10-13.18L12.10-13.18Q11.07-10.56 11.07-8.19L11.07-8.19L11.07-8.19Q11.07-3.07 14.72-3.07L14.72-3.07L14.72-3.07Q17.09-3.07 19.04-4.80L19.04-4.80L19.04-4.80Q20.99-6.53 20.99-8.48L20.99-8.48L20.99-8.48Q20.99-10.43 19.74-11.84L19.74-11.84L19.74-11.84Q18.50-13.25 16.64-14.37L16.64-14.37L16.64-14.37Q14.78-15.49 12.64-16.58L12.64-16.58L12.64-16.58Q10.50-17.66 8.64-19.20L8.64-19.20L8.64-19.20Q4.29-22.72 4.29-28.35L4.29-28.35L4.29-28.35Q4.29-32 6.08-34.85L6.08-34.85L6.08-34.85Q7.87-37.70 10.75-39.62L10.75-39.62L10.75-39.62Q16.51-43.52 23.58-43.52L23.58-43.52L23.58-43.52Q30.66-43.52 34.08-41.41L34.08-41.41L34.08-41.41Q37.50-39.30 37.50-35.71L37.50-35.71L37.50-35.71Q37.50-32.58 35.07-30.59L35.07-30.59L35.07-30.59Q32.96-28.93 30.40-28.93L30.40-28.93L30.40-28.93Q27.84-28.93 26.05-29.57ZM41.63-1.92L41.63-1.92L41.63-1.92Q40.13-3.58 39.46-6.21L39.46-6.21L39.46-6.21Q38.78-8.83 38.78-13.12L38.78-13.12L38.78-13.12Q38.78-17.41 40.26-21.31L40.26-21.31L40.26-21.31Q41.73-25.22 44.42-28.03L44.42-28.03L44.42-28.03Q49.92-33.92 59.01-33.92L59.01-33.92L59.01-33.92Q62.27-33.92 64.64-32.83L64.64-32.83L75.58-33.92L70.85-8.96L70.85-8.96Q70.66-8.19 70.66-6.78L70.66-6.78L70.66-6.78Q70.66-5.38 71.52-4.48L71.52-4.48L71.52-4.48Q72.38-3.58 73.66-3.46L73.66-3.46L73.66-3.46Q73.02-1.28 70.69 0L70.69 0L70.69 0Q68.35 1.28 65.73 1.28L65.73 1.28L65.73 1.28Q63.10 1.28 61.34 0.29L61.34 0.29L61.34 0.29Q59.58-0.70 59.07-2.37L59.07-2.37L59.07-2.37Q58.05-0.77 55.87 0.26L55.87 0.26L55.87 0.26Q53.70 1.28 50.78 1.28L50.78 1.28L50.78 1.28Q47.87 1.28 45.50 0.51L45.50 0.51L45.50 0.51Q43.14-0.26 41.63-1.92ZM55.14-27.90L55.14-27.90L55.14-27.90Q54.40-26.75 53.76-24.80L53.76-24.80L53.76-24.80Q53.12-22.85 52.06-17.63L52.06-17.63L52.06-17.63Q51.01-12.42 51.01-8.70L51.01-8.70L51.01-8.70Q51.01-4.99 51.58-3.90L51.58-3.90L51.58-3.90Q52.16-2.82 53.18-2.82L53.18-2.82L53.18-2.82Q55.23-2.82 56.74-4.77L56.74-4.77L56.74-4.77Q58.24-6.72 58.82-10.18L58.82-10.18L62.21-28.93L62.21-28.93Q60.86-30.08 59.30-30.08L59.30-30.08L59.30-30.08Q57.73-30.08 56.80-29.57L56.80-29.57L56.80-29.57Q55.87-29.06 55.14-27.90ZM87.55 0.19L87.55 0.19L87.55 0.19Q85.50 1.28 82.69 1.28L82.69 1.28L82.69 1.28Q79.87 1.28 78.34-0.16L78.34-0.16L78.34-0.16Q76.80-1.60 76.80-4.38L76.80-4.38L76.80-4.38Q76.80-7.17 78.75-9.89L78.75-9.89L78.75-9.89Q80.70-12.61 83.62-14.14L83.62-14.14L83.62-14.14Q86.53-15.68 88.58-16.58L88.58-16.58L84.54-25.86L84.54-25.86Q83.46-28.22 81.41-28.22L81.41-28.22L80.90-28.16L80.70-28.16L80.70-28.16Q81.09-30.40 83.71-32.13L83.71-32.13L83.71-32.13Q86.34-33.92 89.34-33.92L89.34-33.92L89.34-33.92Q94.21-33.92 96.45-29.06L96.45-29.06L96.96-28.03L99.71-21.25L99.71-21.25Q101.44-22.02 102.18-23.46L102.18-23.46L102.18-23.46Q102.91-24.90 102.91-27.74L102.91-27.74L102.91-27.74Q102.91-30.59 101.38-32.38L101.38-32.38L101.38-32.38Q103.81-33.92 107.01-33.92L107.01-33.92L107.01-33.92Q112.77-33.92 112.77-28.35L112.77-28.35L112.77-28.35Q112.77-22.27 105.15-18.75L105.15-18.75L101.31-16.96L104.77-8.06L104.77-8.06Q105.79-5.38 107.65-4.22L107.65-4.22L107.65-4.22Q108.42-3.71 109.31-3.65L109.31-3.65L109.31-3.65Q107.39-0.51 103.23 0.90L103.23 0.90L103.23 0.90Q101.95 1.28 100.22 1.28L100.22 1.28L100.22 1.28Q98.50 1.28 96.51 0.10L96.51 0.10L96.51 0.10Q94.53-1.09 93.82-2.94L93.82-2.94L90.30-12.10L90.30-12.10Q86.72-10.50 86.72-4.67L86.72-4.67L86.72-4.67Q86.72-1.98 87.55 0.19ZM128.13 1.28L128.13 1.28L128.13 1.28Q114.05 1.28 114.05-11.97L114.05-11.97L114.05-11.97Q114.05-21.38 119.23-27.46L119.23-27.46L119.23-27.46Q124.74-33.92 134.27-33.92L134.27-33.92L134.27-33.92Q141.18-33.92 144.70-30.72L144.70-30.72L144.70-30.72Q148.22-27.52 148.22-20.80L148.22-20.80L148.22-20.80Q148.22-10.56 142.72-4.61L142.72-4.61L142.72-4.61Q137.34 1.28 128.13 1.28ZM129.79-26.56L129.79-26.56L129.79-26.56Q129.02-24.83 128.42-22.24L128.42-22.24L128.42-22.24Q127.81-19.65 127.04-15.55L127.04-15.55L127.04-15.55Q126.27-11.46 126.27-6.40L126.27-6.40L126.27-6.40Q126.27-4.74 126.82-3.65L126.82-3.65L126.82-3.65Q127.36-2.56 128.83-2.56L128.83-2.56L128.83-2.56Q130.30-2.56 131.23-3.26L131.23-3.26L131.23-3.26Q132.16-3.97 132.86-5.63L132.86-5.63L132.86-5.63Q134.14-8.58 135.17-14.05L135.17-14.05L135.17-14.05Q136.19-19.52 136.29-21.89L136.29-21.89L136.29-21.89Q136.38-24.26 136.38-26.02L136.38-26.02L136.38-26.02Q136.38-27.78 135.87-28.93L135.87-28.93L135.87-28.93Q135.36-30.08 133.92-30.08L133.92-30.08L133.92-30.08Q132.48-30.08 131.52-29.18L131.52-29.18L131.52-29.18Q130.56-28.29 129.79-26.56ZM152.06 7.23L152.06 7.23L152.06 7.23Q152.06 5.12 153.41 3.81L153.41 3.81L153.41 3.81Q154.75 2.50 156.80 2.50L156.80 2.50L183.74 2.50L183.74 2.50Q184.06 3.58 184.06 4.42L184.06 4.42L184.06 4.42Q184.06 6.34 182.75 7.68L182.75 7.68L182.75 7.68Q181.44 9.02 178.75 9.02L178.75 9.02L152.32 9.02L152.32 9.02Q152.06 8.19 152.06 7.23ZM195.26-0.32L195.26-0.32L203.33-42.24L203.33-42.24Q210.88-42.88 215.74-42.88L215.74-42.88L215.74-42.88Q220.61-42.88 223.74-42.46L223.74-42.46L223.74-42.46Q226.88-42.05 228.99-40.96L228.99-40.96L228.99-40.96Q233.22-38.91 233.22-33.28L233.22-33.28L233.22-33.28Q233.22-30.02 230.40-27.26L230.40-27.26L230.40-27.26Q227.78-24.77 224.90-24.19L224.90-24.19L224.90-24.19Q227.97-23.68 230.14-21.38L230.14-21.38L230.14-21.38Q232.45-18.94 232.45-15.17L232.45-15.17L232.45-15.17Q232.45-7.87 227.01-3.62L227.01-3.62L227.01-3.62Q221.57 0.64 210.88 0.64L210.88 0.64L210.88 0.64Q203.52 0.64 195.26-0.32ZM212.67-20.61L209.47-4.03L209.47-4.03Q210.05-3.97 210.18-3.97L210.18-3.97L210.75-3.97L210.75-3.97Q216-3.97 218.24-7.42L218.24-7.42L218.24-7.42Q219.90-10.11 219.90-15.04L219.90-15.04L219.90-15.04Q219.90-17.66 218.21-19.07L218.21-19.07L218.21-19.07Q216.51-20.48 212.67-20.61L212.67-20.61ZM222.40-33.22L222.40-33.22L222.40-33.22Q222.40-38.53 217.28-38.53L217.28-38.53L216.70-38.53L216.70-38.53Q216.45-38.53 216.06-38.46L216.06-38.46L213.50-24.96L214.14-24.96L214.14-24.96Q222.40-25.15 222.40-33.22ZM256.70-17.98L256.70-17.98L256.70-17.98Q259.01-22.08 259.01-26.24L259.01-26.24L259.01-26.24Q259.01-28.99 257.02-28.99L257.02-28.99L257.02-28.99Q255.49-28.99 253.89-26.37L253.89-26.37L253.89-26.37Q252.22-23.74 251.71-20.35L251.71-20.35L248.38 0L235.14 1.28L241.66-32.64L252.22-33.92L251.07-27.46L251.07-27.46Q254.21-33.92 261.25-33.92L261.25-33.92L261.25-33.92Q264.96-33.92 266.98-32L266.98-32L266.98-32Q268.99-30.08 268.99-26.14L268.99-26.14L268.99-26.14Q268.99-22.21 266.40-19.71L266.40-19.71L266.40-19.71Q263.81-17.22 259.39-17.22L259.39-17.22L259.39-17.22Q257.47-17.22 256.70-17.98ZM283.97 1.28L283.97 1.28L283.97 1.28Q269.89 1.28 269.89-11.97L269.89-11.97L269.89-11.97Q269.89-21.38 275.07-27.46L275.07-27.46L275.07-27.46Q280.58-33.92 290.11-33.92L290.11-33.92L290.11-33.92Q297.02-33.92 300.54-30.72L300.54-30.72L300.54-30.72Q304.06-27.52 304.06-20.80L304.06-20.80L304.06-20.80Q304.06-10.56 298.56-4.61L298.56-4.61L298.56-4.61Q293.18 1.28 283.97 1.28ZM285.63-26.56L285.63-26.56L285.63-26.56Q284.86-24.83 284.26-22.24L284.26-22.24L284.26-22.24Q283.65-19.65 282.88-15.55L282.88-15.55L282.88-15.55Q282.11-11.46 282.11-6.40L282.11-6.40L282.11-6.40Q282.11-4.74 282.66-3.65L282.66-3.65L282.66-3.65Q283.20-2.56 284.67-2.56L284.67-2.56L284.67-2.56Q286.14-2.56 287.07-3.26L287.07-3.26L287.07-3.26Q288-3.97 288.70-5.63L288.70-5.63L288.70-5.63Q289.98-8.58 291.01-14.05L291.01-14.05L291.01-14.05Q292.03-19.52 292.13-21.89L292.13-21.89L292.13-21.89Q292.22-24.26 292.22-26.02L292.22-26.02L292.22-26.02Q292.22-27.78 291.71-28.93L291.71-28.93L291.71-28.93Q291.20-30.08 289.76-30.08L289.76-30.08L289.76-30.08Q288.32-30.08 287.36-29.18L287.36-29.18L287.36-29.18Q286.40-28.29 285.63-26.56ZM324.35-30.34L324.35-30.34L324.35-30.34Q327.81-33.92 335.10-33.92L335.10-33.92L335.10-33.92Q339.14-33.92 341.34-31.78L341.34-31.78L341.34-31.78Q343.55-29.63 343.55-25.70L343.55-25.70L343.55-25.70Q343.55-21.76 341.34-18.98L341.34-18.98L341.34-18.98Q339.14-16.19 335.04-15.04L335.04-15.04L335.04-15.04Q335.36-13.76 335.81-12.42L335.81-12.42L336.70-9.86L336.70-9.86Q337.92-6.59 338.88-5.44L338.88-5.44L338.88-5.44Q339.84-4.29 341.12-3.90L341.12-3.90L341.12-3.90Q340.42-1.28 337.86 0.13L337.86 0.13L337.86 0.13Q335.81 1.28 332.99 1.28L332.99 1.28L332.99 1.28Q324.74 1.28 323.65-11.46L323.65-11.46L323.65-11.46Q323.46-13.25 323.46-15.04L323.46-15.04L323.46-15.04Q326.66-15.94 328.90-18.94L328.90-18.94L328.90-18.94Q331.14-21.95 331.14-25.47L331.14-25.47L331.14-25.47Q331.14-28.99 328.64-28.99L328.64-28.99L328.64-28.99Q326.85-28.99 325.44-27.01L325.44-27.01L325.44-27.01Q324.03-25.02 323.39-21.63L323.39-21.63L319.17 0L306.24 1.28L315.20-44.80L328.06-46.08L326.59-38.46L326.59-38.46Q325.63-33.09 324.35-30.34ZM360.45 1.28L360.45 1.28L360.45 1.28Q346.37 1.28 346.37-11.97L346.37-11.97L346.37-11.97Q346.37-21.38 351.55-27.46L351.55-27.46L351.55-27.46Q357.06-33.92 366.59-33.92L366.59-33.92L366.59-33.92Q373.50-33.92 377.02-30.72L377.02-30.72L377.02-30.72Q380.54-27.52 380.54-20.80L380.54-20.80L380.54-20.80Q380.54-10.56 375.04-4.61L375.04-4.61L375.04-4.61Q369.66 1.28 360.45 1.28ZM362.11-26.56L362.11-26.56L362.11-26.56Q361.34-24.83 360.74-22.24L360.74-22.24L360.74-22.24Q360.13-19.65 359.36-15.55L359.36-15.55L359.36-15.55Q358.59-11.46 358.59-6.40L358.59-6.40L358.59-6.40Q358.59-4.74 359.14-3.65L359.14-3.65L359.14-3.65Q359.68-2.56 361.15-2.56L361.15-2.56L361.15-2.56Q362.62-2.56 363.55-3.26L363.55-3.26L363.55-3.26Q364.48-3.97 365.18-5.63L365.18-5.63L365.18-5.63Q366.46-8.58 367.49-14.05L367.49-14.05L367.49-14.05Q368.51-19.52 368.61-21.89L368.61-21.89L368.61-21.89Q368.70-24.26 368.70-26.02L368.70-26.02L368.70-26.02Q368.70-27.78 368.19-28.93L368.19-28.93L368.19-28.93Q367.68-30.08 366.24-30.08L366.24-30.08L366.24-30.08Q364.80-30.08 363.84-29.18L363.84-29.18L363.84-29.18Q362.88-28.29 362.11-26.56Z" fill="#ccc" class="svg-elem-1"></path></g></g><style>text {
  font-size: 64px;
  font-family: Arial Black;
  dominant-baseline: central;
  text-anchor: middle;
}</style></svg>